<?xml version="1.0" encoding="utf-8"?>
<!-- Generator: Adobe Illustrator 16.0.3, SVG Export Plug-In . SVG Version: 6.00 Build 0)  -->
<!DOCTYPE svg PUBLIC "-//W3C//DTD SVG 1.1//EN" "http://www.w3.org/Graphics/SVG/1.1/DTD/svg11.dtd">
<svg version="1.1" xmlns="http://www.w3.org/2000/svg" xmlns:xlink="http://www.w3.org/1999/xlink" x="0px" y="0px"
	 width="242.25px" height="61.083px" viewBox="0 0 242.25 61.083" enable-background="new 0 0 242.25 61.083" xml:space="preserve">
<g id="Layer_2" display="none">
	
		<rect x="-15.75" y="-9.917" display="inline" fill-rule="evenodd" clip-rule="evenodd" fill="#F6977D" width="272.5" height="98.25"/>
</g>
<g id="Layer_1">
	<path fill-rule="evenodd" clip-rule="evenodd" fill="#EF6945" d="M25.771,14.432c0.609,0.218,1.258,0.214,1.885,0.349
		c4.572,0.979,8.173,3.404,10.838,7.233c0.67,0.962,0.496,2.094-0.386,2.705c-0.882,0.61-1.985,0.36-2.661-0.611
		c-2.253-3.243-5.323-5.24-9.222-5.825c-7.127-1.068-13.582,3.487-15.204,10.185c-1.825,7.544,2.93,15.063,10.554,16.479
		c5.721,1.062,10.366-0.935,13.821-5.631c0.583-0.792,1.269-1.141,2.042-0.964c1.333,0.304,1.887,1.75,1.103,2.92
		c-1.49,2.222-3.396,4.006-5.714,5.345C22.691,52.464,9.715,46.68,7.301,35.23c-0.143-0.679-0.205-1.375-0.305-2.064
		c-0.012-0.087,0.018-0.19-0.091-0.241c0-0.154,0-0.31,0-0.464c0.146-0.527,0.147-1.054,0-1.58c0-0.155,0-0.31,0-0.465
		c0.198-0.49,0.17-1.019,0.254-1.527c1.153-7.03,6.626-12.721,13.566-14.107c0.628-0.125,1.276-0.131,1.886-0.35
		C23.665,14.432,24.718,14.432,25.771,14.432z"/>
	<g>
		<path fill="#FFFFFF" d="M235.9,34.104c-0.401,0.236-0.324,0.693-0.432,1.041c-1.525,4.805-6.495,7.86-11.493,7.036
			c-5.491-0.906-9.033-5.047-8.879-10.378c0.149-5.122,4.247-9.363,9.362-9.688c5.843-0.37,9.768,2.435,11.26,8.043
			c0.014,0.051,0.118,0.079,0.182,0.119C235.9,31.552,235.9,32.829,235.9,34.104z M231.364,32.257
			c0.017-3.529-2.471-6.204-5.813-6.257c-3.278-0.051-5.887,2.604-5.92,6.023c-0.031,3.499,2.49,6.181,5.846,6.209
			C228.867,38.263,231.35,35.745,231.364,32.257z"/>
	</g>
	<path fill-rule="evenodd" clip-rule="evenodd" fill="#EF6A46" d="M32.913,33.545c-0.307,0-0.475,0-0.642,0
		c-3.854,0-7.71,0.002-11.565-0.002c-1.223-0.001-2.026-0.759-2.014-1.877c0.01-1.025,0.788-1.806,1.838-1.811
		c2.678-0.009,5.355-0.003,8.034-0.003c1.42,0,2.841,0,4.274,0c-0.025-0.194-0.179-0.234-0.28-0.312
		c-1.417-1.102-2.842-2.193-4.256-3.298c-0.609-0.476-0.808-1.133-0.64-1.867c0.16-0.702,0.626-1.17,1.328-1.352
		c0.664-0.172,1.236,0.036,1.771,0.451c2.469,1.918,4.948,3.822,7.422,5.732c0.454,0.35,0.918,0.685,1.352,1.06
		c0.946,0.819,0.949,2.126-0.041,2.895c-2.968,2.308-5.953,4.595-8.945,6.871c-0.82,0.623-1.966,0.429-2.567-0.368
		c-0.612-0.811-0.486-1.911,0.344-2.565c1.372-1.084,2.768-2.138,4.153-3.205C32.586,33.81,32.69,33.723,32.913,33.545z"/>
	<g>
		<path fill="#FFFFFF" d="M71.737,35.3c0.003,4.475-0.646,5.305-5.073,6.497c-4.569,1.228-9.062-0.012-11.536-3.343
			c-2.403-3.234-2.758-6.822-1.141-10.476c1.621-3.661,4.577-5.594,8.568-5.875c2.424-0.172,4.763,0.148,6.883,1.459
			c1.366,0.844,1.822,2.059,1.179,3.17c-0.681,1.179-1.968,1.357-3.4,0.468c-2.753-1.708-5.696-1.58-7.702,0.336
			c-2.264,2.164-2.575,5.957-0.7,8.51c1.679,2.289,5.316,2.993,7.993,1.547c0.591-0.321,1.066-2.656,0.598-3.09
			c-0.143-0.131-0.442-0.125-0.671-0.131c-0.755-0.02-1.516,0.024-2.271-0.027c-1.003-0.069-1.698-0.84-1.699-1.805
			c-0.004-0.977,0.666-1.786,1.678-1.819c1.792-0.057,3.587-0.059,5.378,0.008c1.105,0.039,1.84,0.883,1.906,2.06
			C71.773,33.624,71.737,34.462,71.737,35.3z"/>
	</g>
	<g>
		<path fill="#FFFFFF" d="M115.321,32.1c0-2.352-0.012-4.704,0.003-7.056c0.011-1.895,0.805-2.708,2.699-2.654
			c2.814,0.079,5.657-0.348,8.435,0.467c4.394,1.29,7.343,5.444,6.939,9.802c-0.462,5.023-3.877,8.587-8.658,9.131
			c-2.31,0.261-4.619,0.139-6.927,0.143c-1.652,0.003-2.466-0.868-2.485-2.539C115.302,36.963,115.322,34.53,115.321,32.1z
			 M119.652,31.959c0,1.713,0.027,3.429-0.01,5.141c-0.016,0.648,0.13,0.944,0.846,0.901c1.073-0.063,2.152,0.002,3.227-0.058
			c2.939-0.165,5.02-2.395,5.181-5.513c0.152-2.982-1.727-5.449-4.516-6.007c-1.346-0.269-2.699-0.116-4.048-0.189
			c-0.653-0.034-0.689,0.33-0.685,0.823C119.663,28.691,119.652,30.326,119.652,31.959z"/>
	</g>
	<g>
		<path fill="#FFFFFF" d="M140.112,32.172c-0.003-2.392-0.012-4.785,0.001-7.178c0.011-1.896,0.724-2.614,2.577-2.617
			c3.31-0.004,6.62-0.004,9.93,0c1.522,0.002,2.372,0.679,2.401,1.889c0.025,1.251-0.838,1.942-2.45,1.944
			c-2.395,0.001-4.789,0.042-7.179-0.021c-0.865-0.023-1.037,0.251-1.028,1.062c0.029,2.891-0.003,2.891,2.924,2.892
			c1.277,0,2.553-0.006,3.828,0.001c1.715,0.01,2.636,0.672,2.669,1.904c0.036,1.248-0.954,1.974-2.722,1.98
			c-1.917,0.008-3.83,0.032-5.744-0.012c-0.709-0.019-1.025,0.141-0.949,0.914c0.067,0.712,0.069,1.44,0,2.151
			c-0.087,0.883,0.302,1.048,1.095,1.034c2.473-0.045,4.946-0.028,7.418-0.011c1.444,0.008,2.27,0.709,2.281,1.878
			c0.017,1.149-0.847,1.947-2.245,1.956c-3.471,0.027-6.939,0.033-10.409-0.001c-1.634-0.017-2.383-0.816-2.394-2.467
			C140.096,37.039,140.112,34.604,140.112,32.172z"/>
	</g>
	<g>
		<path fill="#FFFFFF" d="M78.5,29.282c0-1.513-0.02-3.027,0.005-4.541c0.023-1.582,0.917-2.589,2.221-2.563
			c1.264,0.027,2.066,0.995,2.101,2.526c0.073,3.262-0.194,6.533,0.143,9.789c0.253,2.455,1.696,3.71,4.099,3.71
			c2.434-0.004,3.859-1.239,4.086-3.706c0.279-3.018,0.057-6.049,0.117-9.073c0.009-0.478,0.001-0.961,0.061-1.431
			c0.143-1.121,0.909-1.695,1.934-1.777c1.032-0.083,1.835,0.412,2.185,1.464c0.05,0.151,0.114,0.307,0.114,0.463
			c0.019,3.937,0.414,7.903-0.25,11.801c-0.656,3.87-3.379,6.017-7.444,6.274c-1.315,0.084-2.617-0.025-3.891-0.4
			c-3.042-0.897-4.966-3.183-5.302-6.333c-0.061-0.554-0.153-1.108-0.161-1.664c-0.023-1.513-0.008-3.026-0.008-4.54
			C78.505,29.282,78.503,29.282,78.5,29.282z"/>
	</g>
	<g>
		<path fill="#FFFFFF" d="M167.984,22.125c2.115-0.043,3.975,0.447,5.711,1.414c1.36,0.761,1.792,1.807,1.21,2.913
			c-0.571,1.079-1.789,1.349-3.1,0.653c-1.239-0.659-2.496-1.204-3.944-1.162c-1.447,0.042-2.258,0.51-2.392,1.477
			c-0.186,1.375,0.821,1.774,1.816,2.104c1.617,0.534,3.297,0.9,4.872,1.523c3.142,1.24,4.342,3.715,3.431,6.892
			c-0.573,2.003-1.982,3.242-3.931,3.805c-3.674,1.063-7.071,0.282-10.202-1.797c-1.047-0.693-1.261-1.865-0.651-2.815
			c0.608-0.952,1.851-1.193,2.942-0.479c1.244,0.813,2.541,1.447,4.023,1.678c0.845,0.131,1.68,0.09,2.477-0.191
			c0.712-0.251,1.237-0.704,1.286-1.543c0.047-0.795-0.398-1.242-1.041-1.581c-1.061-0.563-2.241-0.774-3.369-1.133
			c-0.718-0.229-1.448-0.41-2.152-0.675c-2.889-1.095-3.99-2.73-3.807-5.589c0.163-2.573,1.855-4.552,4.463-5.23
			C166.439,22.176,167.266,22.076,167.984,22.125z"/>
	</g>
	<g>
		<path fill="#FFFFFF" d="M202.481,22.014c2.212,0.024,4.261,0.527,6.086,1.81c1.123,0.79,1.439,2.087,0.757,3.091
			c-0.68,1-1.882,1.226-3.048,0.479c-1.512-0.974-3.072-1.637-4.932-1.271c-2.626,0.519-4.108,2.219-4.578,4.724
			c-0.468,2.504,0.152,4.798,2.322,6.359c2.082,1.5,4.313,1.343,6.515,0.166c0.385-0.204,0.71-0.511,1.08-0.744
			c1.008-0.628,2.086-0.442,2.753,0.457c0.637,0.859,0.548,1.882-0.314,2.675c-2.406,2.209-5.332,2.848-8.437,2.387
			c-4.961-0.74-8.434-4.656-8.573-9.395c-0.159-5.325,2.903-9.358,7.999-10.489C200.882,22.092,201.688,22.092,202.481,22.014z"/>
	</g>
	<g>
		<path fill="#FFFFFF" d="M107.541,32.202c-0.002,2.466,0.021,4.933-0.01,7.398c-0.021,1.643-0.841,2.497-2.255,2.447
			c-1.097-0.039-1.774-0.603-1.995-1.683c-0.055-0.271-0.083-0.551-0.083-0.828c-0.005-4.932-0.021-9.863,0.004-14.795
			c0.01-1.974,1.542-3.098,3.113-2.328c0.987,0.484,1.23,1.375,1.228,2.391C107.534,27.271,107.541,29.737,107.541,32.202z"/>
	</g>
	<g>
		<path fill="#EF6945" d="M184.409,34.597c-1.423-0.02-2.375-0.987-2.365-2.409c0.012-1.402,1.005-2.389,2.413-2.392
			c1.451-0.002,2.447,1.03,2.416,2.499C186.841,33.693,185.854,34.618,184.409,34.597z"/>
	</g>
</g>
</svg>
